<svg width="30" height="31" viewBox="0 0 30 31" fill="#ffff" xmlns="http://www.w3.org/2000/svg">
<g clip-path="url(#clip0_1219_307)">
<path d="M15 0.499023C6.71625 0.499023 0 7.14477 0 15.3416C0 23.5384 6.71625 30.1841 15 30.1841C23.2838 30.1841 30 23.5384 30 15.3416C30 7.14477 23.2838 0.499023 15 0.499023ZM16.25 20.3596V16.5784H19.9925C19.9188 17.9922 19.7275 19.3491 19.4225 20.6342C18.3937 20.4857 17.33 20.4016 16.25 20.3596ZM18.6962 23.0337C18.0725 24.6788 17.2475 26.1222 16.25 27.3084V22.8309C17.0825 22.8655 17.8988 22.9311 18.6962 23.0337ZM16.25 14.1047V10.3755C17.335 10.3334 18.4013 10.2481 19.435 10.0984C19.7325 11.3687 19.9213 12.7095 19.9925 14.1047H16.25ZM16.25 7.90298V3.37477C17.2575 4.5733 18.0887 6.03406 18.7137 7.69889C17.9112 7.80279 17.0888 7.86835 16.25 7.90298ZM19.6287 3.8621C21.175 4.47559 22.5713 5.38098 23.7412 6.51644C22.9387 6.80587 22.1025 7.06314 21.2175 7.26722C20.7875 6.04024 20.2488 4.90479 19.6287 3.8621ZM10.5775 20.6342C10.2725 19.3491 10.08 17.9922 10.0075 16.5784H13.75V20.3596C12.6687 20.4016 11.6075 20.4857 10.5775 20.6342ZM13.75 22.8309V27.3084C12.7525 26.1222 11.9275 24.6788 11.3038 23.0337C12.1013 22.9311 12.9175 22.8655 13.75 22.8309ZM10.0075 14.1047C10.0787 12.7095 10.2662 11.3687 10.565 10.0984C11.5987 10.2481 12.665 10.3334 13.75 10.3755V14.1047H10.0075ZM11.2875 7.69889C11.9125 6.03406 12.7437 4.5733 13.75 3.37477V7.90298C12.9113 7.86835 12.0887 7.80279 11.2875 7.69889ZM8.78125 7.26599C7.89625 7.0619 7.06 6.80463 6.25875 6.5152C7.43 5.37975 8.825 4.47435 10.3713 3.86086C9.75125 4.90479 9.2125 6.04024 8.78125 7.26599ZM8.095 9.63832C7.765 11.062 7.5525 12.5574 7.48 14.1047H2.56375C2.77 12.0539 3.4875 10.1504 4.585 8.51647C5.685 8.96299 6.855 9.34518 8.095 9.63832ZM8.10625 21.0943C6.87125 21.3862 5.70625 21.7647 4.61 22.2075C3.4975 20.5649 2.77125 18.6465 2.56375 16.5784H7.48125C7.55375 18.1431 7.77 19.6558 8.10625 21.0943ZM8.7975 23.4654C9.225 24.6726 9.7575 25.792 10.3687 26.8198C8.84 26.2137 7.46125 25.3219 6.29875 24.2038C7.09375 23.9206 7.9225 23.6658 8.7975 23.4654ZM21.2025 23.4654C22.0775 23.667 22.905 23.9193 23.7013 24.2038C22.5375 25.3207 21.1588 26.2137 19.63 26.821C20.2413 25.792 20.7738 24.6726 21.2025 23.4654ZM21.8937 21.0943C22.2312 19.6558 22.4463 18.1431 22.52 16.5784H27.4375C27.2288 18.6465 26.5025 20.5649 25.39 22.2075C24.2938 21.7647 23.1275 21.3862 21.8937 21.0943ZM22.52 14.1047C22.4475 12.5574 22.2337 11.062 21.905 9.63832C23.145 9.34518 24.3162 8.96299 25.4163 8.51647C26.5125 10.1504 27.23 12.0539 27.4362 14.1047H22.52Z" fill="#fffff" fill-opacity="0.5"/>
</g>
<defs>
<clipPath id="clip0_1219_307">
<rect width="30" height="29.6851" fill="white" transform="translate(0 0.499023)"/>
</clipPath>
</defs>
</svg>
